<?xml version="1.0" encoding="UTF-8"?>
<svg xmlns="http://www.w3.org/2000/svg" xmlns:xlink="http://www.w3.org/1999/xlink" width="100" height="100"
  viewBox="0 0 3000 3000">

  <path fill-rule="evenodd" fill="rgb(100%, 100%, 100%)" fill-opacity="1"
    d="M 1491.550781 249.511719 C 1402.859375 249.941406 1312.820312 265.328125 1232.75 304.121094 C 1184.308594 327.578125 1139.289062 361.261719 1104.019531 404.648438 C 965.4375 317.851562 829.652344 300.429688 719.886719 349.089844 C 607.082031 399.101562 536.835938 506.730469 508.667969 630.160156 C 337.835938 677.53125 227.273438 794.96875 182.285156 926.5 C 137.992188 1055.980469 147.945312 1194.789062 194.261719 1311.011719 C 131.121094 1429.46875 127.21875 1567.980469 158.5 1682.628906 C 176.089844 1747.101562 204.914062 1806.050781 253.980469 1849.820312 C 274.136719 1867.800781 299.507812 1881.699219 327.128906 1890.488281 C 330.378906 1926.839844 340.933594 1961.800781 356.261719 1992.738281 C 387.425781 2055.65625 436.191406 2106.992188 491.757812 2146.652344 C 547.328125 2186.3125 609.941406 2214.726562 676.277344 2223.53125 C 712.566406 2228.347656 752.070312 2225.84375 789.164062 2213.691406 C 864.34375 2292.304688 965.355469 2344.765625 1074.851562 2378.324219 C 1133.429688 2549.566406 1220.710938 2660.96875 1326.941406 2735 C 1359.488281 2757.671875 1403.308594 2755.257812 1433.171875 2729.148438 C 1463.039062 2703.035156 1471.28125 2659.9375 1453.148438 2624.648438 C 1424.289062 2568.5 1414.941406 2499.992188 1426.890625 2425.996094 C 1576.390625 2424.296875 1722.519531 2397.089844 1842.488281 2343.339844 C 1912.070312 2312.164062 1973.558594 2271.863281 2019.738281 2217.640625 C 2033.078125 2201.976562 2044.800781 2184.773438 2054.941406 2166.578125 C 2115.429688 2202.5625 2176.921875 2222.1875 2236.828125 2226.117188 C 2333.371094 2232.449219 2420.671875 2198.28125 2487.910156 2147.503906 C 2555.160156 2096.730469 2604.839844 2029.9375 2635.53125 1959.949219 C 2656.101562 1913.058594 2669.289062 1864.089844 2668.570312 1814.789062 C 2732.441406 1771.519531 2791.339844 1706.980469 2828.320312 1622.359375 C 2871.480469 1523.609375 2876.289062 1395.269531 2812.46875 1268.648438 C 2841.589844 1193.460938 2851.320312 1106.789062 2834.828125 1021.789062 C 2820.269531 946.71875 2774.679688 869.140625 2701.160156 825.511719 C 2706.890625 755.539062 2681.808594 685 2630.25 638.011719 C 2577.71875 590.148438 2505.738281 564.5 2422.320312 561.050781 C 2418.761719 525.46875 2407.519531 491.949219 2388.230469 464.261719 C 2346.371094 404.179688 2282.230469 372.410156 2215.640625 355.988281 C 2114.148438 330.980469 1997.320312 337.121094 1898.511719 386.648438 C 1864.71875 351.101562 1820.730469 324.410156 1774.46875 304.171875 C 1691.019531 267.671875 1592.058594 249.019531 1491.550781 249.511719 Z M 1491.550781 249.511719 " />
  <path fill-rule="evenodd" fill="rgb(0%, 0%, 0%)" fill-opacity="1"
    d="M 1491.769531 295.808594 C 1408.539062 296.21875 1324.761719 311 1252.941406 345.789062 C 1196.808594 372.980469 1147.921875 413.75 1115.921875 468.351562 C 973.363281 365.410156 841.128906 345.988281 738.65625 391.421875 C 634.742188 437.488281 570.070312 543.730469 548.875 667.738281 C 374.378906 705.621094 269.207031 815.460938 226.101562 941.480469 C 183.484375 1066.070312 197.027344 1203.828125 246.074219 1313.480469 C 179.945312 1422.710938 173.179688 1560.519531 203.171875 1670.441406 C 219.070312 1728.699219 245.339844 1780.058594 284.800781 1815.261719 C 308.960938 1836.808594 339.816406 1850.941406 372.820312 1854.238281 C 370.085938 1895.269531 379.792969 1935.929688 397.757812 1972.191406 C 424.597656 2026.378906 468.378906 2073.074219 518.660156 2108.960938 C 568.941406 2144.847656 625.835938 2170.117188 682.371094 2177.621094 C 723.484375 2183.078125 766.117188 2178.0625 802.027344 2158.351562 C 875.953125 2247.566406 987.234375 2305.945312 1111.089844 2340.539062 C 1167.058594 2518.144531 1249.820312 2624.808594 1353.421875 2697.011719 C 1368.519531 2707.523438 1388.839844 2706.402344 1402.691406 2694.289062 C 1416.539062 2682.179688 1420.371094 2662.191406 1411.96875 2645.820312 C 1372.691406 2569.414062 1365.179688 2476.109375 1389.300781 2379.320312 C 1546.160156 2382.042969 1701.789062 2355.636719 1823.558594 2301.078125 C 1888.628906 2271.929688 1944.359375 2234.738281 1984.488281 2187.617188 C 2007.308594 2160.824219 2024.589844 2130.28125 2034.980469 2097.261719 C 2104.371094 2149.300781 2173.890625 2175.582031 2239.859375 2179.910156 C 2323.949219 2185.425781 2399.890625 2155.945312 2460.011719 2110.550781 C 2520.128906 2065.152344 2565.609375 2004.105469 2593.128906 1941.351562 C 2615.308594 1890.769531 2626.519531 1838.738281 2620.191406 1790.671875 C 2684.648438 1752.921875 2748.769531 1688.75 2785.890625 1603.808594 C 2826.378906 1511.179688 2830.320312 1392.570312 2761.339844 1270.96875 C 2792.730469 1200.648438 2805.25 1112.441406 2789.378906 1030.609375 C 2774.640625 954.640625 2728.890625 881.980469 2650.191406 851.410156 C 2667.390625 785.441406 2648.679688 717.449219 2599.058594 672.238281 C 2548.269531 625.960938 2470.921875 602.238281 2376.53125 607.730469 C 2382.011719 563.808594 2372.660156 522.929688 2350.230469 490.730469 C 2317.390625 443.589844 2263.738281 415.539062 2204.558594 400.949219 C 2103.03125 375.929688 1979.640625 387.949219 1887.019531 446.910156 C 1858.878906 403.5 1811.019531 370.699219 1755.910156 346.601562 C 1679.828125 313.320312 1586.109375 295.351562 1491.769531 295.808594 Z M 1491.769531 295.808594 " />
  <path fill-rule="evenodd" fill="rgb(100%, 100%, 100%)" fill-opacity="1"
    d="M 1491.96875 335.878906 C 1334.929688 336.648438 1178.53125 392.878906 1130.941406 530.320312 C 829.175781 281.75 612.257812 449.070312 583.914062 701.679688 C 225.117188 760.789062 187.125 1111.539062 291.464844 1316.96875 C 153.886719 1515.058594 252.640625 1869.421875 423.59375 1808.75 C 344.542969 2002.460938 689.433594 2230.753906 810.003906 2102.394531 C 878.292969 2204.792969 1000.960938 2271.914062 1142.5 2307.875 C 1196.621094 2492.667969 1275.230469 2593.679688 1376.328125 2664.136719 C 1327.640625 2569.398438 1322.730469 2453.921875 1358.75 2338.707031 C 1683.03125 2352.726562 2014.621094 2233.109375 2005.710938 2019.90625 C 2337.25 2340.578125 2631.578125 1939.179688 2574.730469 1769.390625 C 2702.238281 1710 2865.289062 1509.871094 2716.078125 1273.109375 C 2783.328125 1145.949219 2779.011719 905.5 2597.199219 878.480469 C 2669.050781 747.621094 2549.890625 613.148438 2322.539062 654.089844 C 2424 424.261719 2031.460938 360.839844 1870.828125 509.449219 C 1848.730469 405.371094 1669.941406 335.011719 1491.96875 335.878906 Z M 1491.96875 335.878906 " />
</svg>